<?xml version="1.0" encoding="utf-8"?>
<!-- Generator: Adobe Illustrator 26.1.0, SVG Export Plug-In . SVG Version: 6.00 Build 0)  -->
<svg version="1.1"
	 id="svg3030" inkscape:export-filename="/home/akien/Projects/godot/godot.git/icon.png" xmlns:cc="http://creativecommons.org/ns#" xmlns:dc="http://purl.org/dc/elements/1.1/" xmlns:inkscape="http://www.inkscape.org/namespaces/inkscape" xmlns:rdf="http://www.w3.org/1999/02/22-rdf-syntax-ns#" xmlns:sodipodi="http://sodipodi.sourceforge.net/DTD/sodipodi-0.dtd" xmlns:svg="http://www.w3.org/2000/svg"
	 xmlns="http://www.w3.org/2000/svg" xmlns:xlink="http://www.w3.org/1999/xlink" x="0px" y="0px" viewBox="0 0 1024 1024"
	 style="enable-background:new 0 0 1024 1024;" xml:space="preserve">
<style type="text/css">
	.st0{fill:#8298CD;}
	.st1{fill:#4969B6;}
</style>
<g>
	<path class="st0" d="M937.6,577.6c-28.7-111.6-57.2-223.2-86-334.7c-21.7-84.3-31.2-122.7-53.8-209.6
		c-162.3,86.7-321.7,171.8-482.1,257.4c8.3,33.1,4,20.2,12.3,53.2c2-0.4,4-0.7,6.2-0.7c10.7,0,17.8,5.5,26.9,12.5
		c3.3,2.5,6.6,5.2,10.2,8.4c9.7,8.5,16.8,14.7,19.3,25.1c2.5,10.4-0.8,19.1-5.5,31.1c-0.4,2.3,2.5,7.5,4.8,8.4
		c12,1.2,20.8,2.2,28.5,8.9c7.8,6.9,9.8,15.4,12.6,27.3c0.2,0.8,0.4,1.7,0.6,2.5c0.8,2.9,1.7,6.6,2.1,10.8c0.4,4,0.7,7.1,1.1,9.9
		c1,8.3,2,16.2-2.9,24.5c-4.5,7.5-11.1,10.6-19.4,14.7c-1.3,0.6-2.8,1.4-4.5,2.2c-0.1,0.5-0.3,1.1-0.4,1.5c-0.3,1.2-0.7,2.5-1.2,4
		c-0.9,3-0.9,4.3-0.8,4.6c0.1,0.2,0.6,0.8,1.7,1.6c16.2,12.2,19.7,30.9,9,48.8c-1.3,2.2-2.6,4.6-4,7.1c-0.8,1.6-1.7,3.1-2.6,4.7
		c-3.9,7-7.6,13.6-12.3,18.7c5,19.8,9.9,39.6,14.9,59.4c-11.1,1.5-18.7,2.3-26.2,3.5c-74.2,11.9-131.6,49-167.6,115.6
		c-25.8,47.9-28,97.3,5.5,142.5c33.8,45.5,82.8,55.3,135.4,45.8c107.3-19.4,175-120.2,151.8-227c-15-68.8-34.2-136.7-51.4-205
		c-11.7-46.3-23.1-92.7-34.7-139.4c59.7-31.2,116.1-60.6,172.6-90.1c56.8-29.7,113.5-59.6,173.1-90.8
		c26.3,103.9,51,201.9,75.5,298.5c-4.8,3.1-5.6,4-6.7,4.2c-7.7,1.5-15.4,2.5-23,4.3c-85.4,20.9-148.1,68.9-173.9,155.2
		c-26.6,88.9,37.3,164.8,129.2,153.9c24.8-2.9,50.7-11.4,72.4-23.8C931.3,777.9,965.1,684.4,937.6,577.6z"/>
	<path class="st1" d="M164.4,640.5c1.1-21.7-15.2-36.2-34.5-30.8c-12.2,3.4-20,0.9-25.4-10.3c-1.9-3.9-4.4-7.4-6.5-11.2
		c-11-19.5-11.2-19.9,4.2-36c4.8-5.1,5.1-9.6,4.5-16.3c-1.3-14-6.6-23.6-20.4-27.8c-8.1-2.4-10.1-8.2-8.8-15.9
		c0.9-5.3,1.3-10.7,2.3-16c4.7-24.6,4.7-24.4,29-28c3.3-0.5,7.1-3.1,9.2-5.8c9.5-12.4,14.1-25.2,3.7-40c-1.8-2.5-0.7-9.8,1.7-12.1
		c9.5-9.2,19.9-17.6,30.5-25.7c2.1-1.6,6.5-1,9.6-0.2c2.6,0.6,4.9,3,7.3,4.5c11.5,7.2,27.7,7,38.2-1.3c2.7-2.1,3.8-6.7,4.9-10.3
		c5.2-18,5.1-18.6,23.5-20.1c9.6-0.8,19.5-0.4,29,1.4c3.6,0.7,8.7,6.4,9,10.1c1.4,19,15.9,23.1,29.9,26.8c4,1.1,9.8-2.7,14.1-5.4
		c15.4-9.3,15.3-9.5,29.6,1.4c3.1,2.4,6.2,5,9.2,7.6c16.1,14.1,16,14.1,8.3,33.9c-5.5,14,6.5,34,21.2,35.5c19.4,2,19.5,2,23.8,20.9
		c0.8,3.5,2,7,2.3,10.5c2.3,26,6.4,21.1-15.9,32.2c-8.1,4-8.4,10-10.5,16.8c-3.7,11.7-2,20.9,7.9,28.3c8.4,6.3,9,13.9,3.9,22.6
		c-2.4,4-4.5,8.2-6.8,12.3c-11.4,20.4-11.4,20.4-34.1,16.2c-13.2-2.5-30.5,12.1-30.5,25.3c0,22.8,5.1,20.4-19.7,30.4
		c-4,1.6-8.1,2.9-12.1,4.5c-11.5,4.7-19.8,2.4-27.4-8.6c-11.1-16.3-33.5-16.1-44.7,0.4c-7.3,10.7-15.4,12.7-26.6,8.3
		c-6-2.4-12-5-18.2-6.7C166.8,658.4,161.4,651.2,164.4,640.5z M333.8,506.6c0.1-48.4-38.5-87.5-86.7-87.9
		c-48.8-0.3-88.3,38.7-88.4,87.3c-0.1,48.3,38.7,87.6,86.7,87.9C294.3,594.2,333.7,555.4,333.8,506.6z"/>
</g>
</svg>
